<svg width="512" height="512" viewBox="0 0 512 512" fill="none" xmlns="http://www.w3.org/2000/svg">
<rect width="512" height="512" fill="#001F29"/>
<path d="M197.41 174.112H117.934C112.448 174.112 108 174.314 108 179.801V249.385C108 321.024 184.783 378.784 230.38 402.833C234.361 404.933 239.04 402.009 239.027 397.509C238.905 357.768 238.778 282.091 239.059 232.955C239.364 179.462 234.091 174.112 197.41 174.112Z" fill="#00E6F5"/>
<path d="M272.701 233.15C272.395 179.657 277.668 174.308 314.349 174.308H345.227C346.77 174.308 348.289 174.697 349.642 175.44L399.45 202.797C400.273 203.25 401.051 203.799 401.657 204.517C405.049 208.544 403.76 212.761 403.76 249.581C403.76 321.22 326.976 378.979 281.38 403.028C277.399 405.128 272.719 402.205 272.733 397.704C272.854 357.964 272.982 282.286 272.701 233.15Z" fill="#00E6F5"/>
<path d="M108.766 124.038V147.346C185.822 147.346 334.126 147.559 347.576 147.559C347.809 147.559 403.362 178.457 403.744 178.839C403.871 164.065 404.05 140.452 403.744 130.365C403.438 120.277 389.606 104.169 374.705 104.169C307.583 104.042 167.456 103.863 139.334 104.169C111.212 104.474 108.766 117.16 108.766 124.038Z" fill="#00E6F5"/>
</svg>
